<?xml version="1.0" encoding="UTF-8" standalone="no"?>
<svg
   version="1.0"
   width="300.000000pt"
   height="300.000000pt"
   viewBox="0 0 300.000000 300.000000"
   preserveAspectRatio="xMidYMid meet"
   id="svg254"
   sodipodi:docname="safari-pinned-tab.svg"
   inkscape:version="1.2.1 (9c6d41e410, 2022-07-14)"
   xmlns:inkscape="http://www.inkscape.org/namespaces/inkscape"
   xmlns:sodipodi="http://sodipodi.sourceforge.net/DTD/sodipodi-0.dtd"
   xmlns="http://www.w3.org/2000/svg"
   xmlns:svg="http://www.w3.org/2000/svg">
  <defs
     id="defs258" />
  <sodipodi:namedview
     id="namedview256"
     pagecolor="#505050"
     bordercolor="#eeeeee"
     borderopacity="1"
     inkscape:showpageshadow="0"
     inkscape:pageopacity="0"
     inkscape:pagecheckerboard="0"
     inkscape:deskcolor="#505050"
     inkscape:document-units="pt"
     showgrid="false"
     inkscape:zoom="0.995"
     inkscape:cx="132.66332"
     inkscape:cy="250.75377"
     inkscape:window-width="1920"
     inkscape:window-height="976"
     inkscape:window-x="1912"
     inkscape:window-y="-8"
     inkscape:window-maximized="1"
     inkscape:current-layer="g252" />
  <metadata
     id="metadata248">
Created by potrace 1.14, written by Peter Selinger 2001-2017
</metadata>
  <g
     transform="translate(0.000000,300.000000) scale(0.100000,-0.100000)"
     fill="#000000"
     stroke="none"
     id="g252">
    <path
       id="rect429"
       style="font-variation-settings:normal;opacity:1;vector-effect:none;fill:#d45500;fill-opacity:1;fill-rule:evenodd;stroke:none;stroke-width:2.886;stroke-linecap:butt;stroke-linejoin:miter;stroke-miterlimit:4;stroke-dasharray:none;stroke-dashoffset:0;stroke-opacity:1;-inkscape-stroke:none;stop-color:#000000;stop-opacity:1"
       d="M 0 0 L 0 300.00732 L 299.9502 300.00732 L 299.9502 0 L 0 0 z "
       transform="matrix(9.9999998,0,0,-9.9999998,0,3000)" />
    <path
       d="M2480 2943 c-50 -133 -804 -2176 -876 -2372 -57 -157 -80 -209 -86 -195 -4 11 -75 206 -158 434 -83 228 -298 811 -478 1295 l-327 880 -190 3 c-105 1 -227 -1 -272 -5 l-82 -8 573 -1485 573 -1485 343 0 342 0 579 1480 c318 814 579 1488 579 1498 0 16 -18 17 -249 17 l-250 0 -21 -57z"
       id="path250" />
  </g>
</svg>
